<?xml version="1.0" encoding="iso-8859-1" standalone="no"?> 
<?xml-stylesheet href="test.css" type="text/css"?> 
<svg xmlns="http://www.w3.org/2000/svg" xmlns:xlink="http://www.w3.org/1999/xlink" width="459.69072pt" height="566.86588pt" viewBox="-388.58456 -557.08847 459.69072 566.86588 "> 
<g transform="translate(0, 9.7774 ) scale(1,-1) translate(0,557.08847 )"> 
                                                                                                                     <g>
 <g stroke="rgb(0.0%,0.0%,0.0%)">
 <g fill="rgb(0.0%,0.0%,0.0%)">
 <g stroke-width="0.4pt">
 <g>
 <g>
 <g transform="matrix(1.0,0.0,0.0,1.0,0.0,0.0)">
 <g>
 <g transform="matrix(1.0,0.0,0.0,1.0,-32.50006,0.0)">
 <g fill="rgb(0.0%,0.0%,0.0%)">
 <text style="stroke:none" transform="scale(1,-1) translate(32.50006,0)" text-anchor="middle"  font-size="10"> 
count-count 11</text> 
</g>
 </g>
 </g>
 </g>
 </g>
 <g>
 <g transform="matrix(1.0,0.0,0.0,1.0,0.0,-27.68777)">
 <g>
 <g transform="matrix(1.0,0.0,0.0,1.0,-15.27779,0.0)">
 <g fill="rgb(0.0%,0.0%,0.0%)">
 <text style="stroke:none" transform="scale(1,-1) translate(15.27779,0)" text-anchor="middle"  font-size="10"> 
cc 11 5</text> 
</g>
 </g>
 </g>
 </g>
 </g>
 <g>
 <g transform="matrix(1.0,0.0,0.0,1.0,-50.82872,-55.37555)">
 <g>
 <g transform="matrix(1.0,0.0,0.0,1.0,-15.27779,0.0)">
 <g fill="rgb(0.0%,0.0%,0.0%)">
 <text style="stroke:none" transform="scale(1,-1) translate(15.27779,0)" text-anchor="middle"  font-size="10"> 
cc 11 4</text> 
</g>
 </g>
 </g>
 </g>
 </g>
 <g>
 <g transform="matrix(1.0,0.0,0.0,1.0,-119.3098,-83.06332)">
 <g>
 <g transform="matrix(1.0,0.0,0.0,1.0,-15.27779,0.0)">
 <g fill="rgb(0.0%,0.0%,0.0%)">
 <text style="stroke:none" transform="scale(1,-1) translate(15.27779,0)" text-anchor="middle"  font-size="10"> 
cc 11 3</text> 
</g>
 </g>
 </g>
 </g>
 </g>
 <g>
 <g transform="matrix(1.0,0.0,0.0,1.0,-227.26227,-193.81442)">
 <g>
 <g transform="matrix(1.0,0.0,0.0,1.0,-15.27779,0.0)">
 <g fill="rgb(0.0%,0.0%,0.0%)">
 <text style="stroke:none" transform="scale(1,-1) translate(15.27779,0)" text-anchor="middle"  font-size="10"> 
cc 11 2</text> 
</g>
 </g>
 </g>
 </g>
 </g>
 <g>
 <g transform="matrix(1.0,0.0,0.0,1.0,-339.72325,-221.5022)">
 <g>
 <g transform="matrix(1.0,0.0,0.0,1.0,-15.27779,0.0)">
 <g fill="rgb(0.0%,0.0%,0.0%)">
 <text style="stroke:none" transform="scale(1,-1) translate(15.27779,0)" text-anchor="middle"  font-size="10"> 
cc 11 1</text> 
</g>
 </g>
 </g>
 </g>
 </g>
 <g>
 <g transform="matrix(1.0,0.0,0.0,1.0,-369.9738,-249.18997)">
 <g>
 <g transform="matrix(1.0,0.0,0.0,1.0,-15.27779,0.0)">
 <g fill="rgb(0.0%,0.0%,0.0%)">
 <text style="stroke:none" transform="scale(1,-1) translate(15.27779,0)" text-anchor="middle"  font-size="10"> 
cc 11 0</text> 
</g>
 </g>
 </g>
 </g>
 </g>
 <g>
 <g transform="matrix(1.0,0.0,0.0,1.0,-369.9738,-276.87775)">
 <g>
 <g transform="matrix(1.0,0.0,0.0,1.0,-2.5,0.0)">
 <g fill="rgb(0.0%,0.0%,0.0%)">
 <text style="stroke:none" transform="scale(1,-1) translate(2.5,0)" text-anchor="middle"  font-size="10"> 
0</text> 
</g>
 </g>
 </g>
 </g>
 </g>
 <g>
 <g transform="matrix(1.0,0.0,0.0,1.0,-309.4727,-249.18997)">
 <g>
 <g transform="matrix(1.0,0.0,0.0,1.0,-15.27779,0.0)">
 <g fill="rgb(0.0%,0.0%,0.0%)">
 <text style="stroke:none" transform="scale(1,-1) translate(15.27779,0)" text-anchor="middle"  font-size="10"> 
cc 10 1</text> 
</g>
 </g>
 </g>
 </g>
 </g>
 <g>
 <g transform="matrix(1.0,0.0,0.0,1.0,-338.46411,-276.87775)">
 <g>
 <g transform="matrix(1.0,0.0,0.0,1.0,-15.27779,0.0)">
 <g fill="rgb(0.0%,0.0%,0.0%)">
 <text style="stroke:none" transform="scale(1,-1) translate(15.27779,0)" text-anchor="middle"  font-size="10"> 
cc 10 0</text> 
</g>
 </g>
 </g>
 </g>
 </g>
 <g>
 <g transform="matrix(1.0,0.0,0.0,1.0,-338.46411,-304.56552)">
 <g>
 <g transform="matrix(1.0,0.0,0.0,1.0,-2.5,0.0)">
 <g fill="rgb(0.0%,0.0%,0.0%)">
 <text style="stroke:none" transform="scale(1,-1) translate(2.5,0)" text-anchor="middle"  font-size="10"> 
0</text> 
</g>
 </g>
 </g>
 </g>
 </g>
 <g>
 <g transform="matrix(1.0,0.0,0.0,1.0,-280.48131,-276.87775)">
 <g>
 <g transform="matrix(1.0,0.0,0.0,1.0,-12.77779,0.0)">
 <g fill="rgb(0.0%,0.0%,0.0%)">
 <text style="stroke:none" transform="scale(1,-1) translate(12.77779,0)" text-anchor="middle"  font-size="10"> 
cc 9 1</text> 
</g>
 </g>
 </g>
 </g>
 </g>
 <g>
 <g transform="matrix(1.0,0.0,0.0,1.0,-309.45442,-304.56552)">
 <g>
 <g transform="matrix(1.0,0.0,0.0,1.0,-12.77779,0.0)">
 <g fill="rgb(0.0%,0.0%,0.0%)">
 <text style="stroke:none" transform="scale(1,-1) translate(12.77779,0)" text-anchor="middle"  font-size="10"> 
cc 9 0</text> 
</g>
 </g>
 </g>
 </g>
 </g>
 <g>
 <g transform="matrix(1.0,0.0,0.0,1.0,-309.45442,-332.2533)">
 <g>
 <g transform="matrix(1.0,0.0,0.0,1.0,-2.5,0.0)">
 <g fill="rgb(0.0%,0.0%,0.0%)">
 <text style="stroke:none" transform="scale(1,-1) translate(2.5,0)" text-anchor="middle"  font-size="10"> 
0</text> 
</g>
 </g>
 </g>
 </g>
 </g>
 <g>
 <g transform="matrix(1.0,0.0,0.0,1.0,-251.50821,-304.56552)">
 <g>
 <g transform="matrix(1.0,0.0,0.0,1.0,-12.77779,0.0)">
 <g fill="rgb(0.0%,0.0%,0.0%)">
 <text style="stroke:none" transform="scale(1,-1) translate(12.77779,0)" text-anchor="middle"  font-size="10"> 
cc 8 1</text> 
</g>
 </g>
 </g>
 </g>
 </g>
 <g>
 <g transform="matrix(1.0,0.0,0.0,1.0,-280.44473,-332.2533)">
 <g>
 <g transform="matrix(1.0,0.0,0.0,1.0,-12.77779,0.0)">
 <g fill="rgb(0.0%,0.0%,0.0%)">
 <text style="stroke:none" transform="scale(1,-1) translate(12.77779,0)" text-anchor="middle"  font-size="10"> 
cc 8 0</text> 
</g>
 </g>
 </g>
 </g>
 </g>
 <g>
 <g transform="matrix(1.0,0.0,0.0,1.0,-280.44473,-359.94107)">
 <g>
 <g transform="matrix(1.0,0.0,0.0,1.0,-2.5,0.0)">
 <g fill="rgb(0.0%,0.0%,0.0%)">
 <text style="stroke:none" transform="scale(1,-1) translate(2.5,0)" text-anchor="middle"  font-size="10"> 
0</text> 
</g>
 </g>
 </g>
 </g>
 </g>
 <g>
 <g transform="matrix(1.0,0.0,0.0,1.0,-222.57169,-332.2533)">
 <g>
 <g transform="matrix(1.0,0.0,0.0,1.0,-12.77779,0.0)">
 <g fill="rgb(0.0%,0.0%,0.0%)">
 <text style="stroke:none" transform="scale(1,-1) translate(12.77779,0)" text-anchor="middle"  font-size="10"> 
cc 7 1</text> 
</g>
 </g>
 </g>
 </g>
 </g>
 <g>
 <g transform="matrix(1.0,0.0,0.0,1.0,-251.43504,-359.94107)">
 <g>
 <g transform="matrix(1.0,0.0,0.0,1.0,-12.77779,0.0)">
 <g fill="rgb(0.0%,0.0%,0.0%)">
 <text style="stroke:none" transform="scale(1,-1) translate(12.77779,0)" text-anchor="middle"  font-size="10"> 
cc 7 0</text> 
</g>
 </g>
 </g>
 </g>
 </g>
 <g>
 <g transform="matrix(1.0,0.0,0.0,1.0,-251.43504,-387.62885)">
 <g>
 <g transform="matrix(1.0,0.0,0.0,1.0,-2.5,0.0)">
 <g fill="rgb(0.0%,0.0%,0.0%)">
 <text style="stroke:none" transform="scale(1,-1) translate(2.5,0)" text-anchor="middle"  font-size="10"> 
0</text> 
</g>
 </g>
 </g>
 </g>
 </g>
 <g>
 <g transform="matrix(1.0,0.0,0.0,1.0,-193.70834,-359.94107)">
 <g>
 <g transform="matrix(1.0,0.0,0.0,1.0,-12.77779,0.0)">
 <g fill="rgb(0.0%,0.0%,0.0%)">
 <text style="stroke:none" transform="scale(1,-1) translate(12.77779,0)" text-anchor="middle"  font-size="10"> 
cc 6 1</text> 
</g>
 </g>
 </g>
 </g>
 </g>
 <g>
 <g transform="matrix(1.0,0.0,0.0,1.0,-222.42535,-387.62885)">
 <g>
 <g transform="matrix(1.0,0.0,0.0,1.0,-12.77779,0.0)">
 <g fill="rgb(0.0%,0.0%,0.0%)">
 <text style="stroke:none" transform="scale(1,-1) translate(12.77779,0)" text-anchor="middle"  font-size="10"> 
cc 6 0</text> 
</g>
 </g>
 </g>
 </g>
 </g>
 <g>
 <g transform="matrix(1.0,0.0,0.0,1.0,-222.42535,-415.31662)">
 <g>
 <g transform="matrix(1.0,0.0,0.0,1.0,-2.5,0.0)">
 <g fill="rgb(0.0%,0.0%,0.0%)">
 <text style="stroke:none" transform="scale(1,-1) translate(2.5,0)" text-anchor="middle"  font-size="10"> 
0</text> 
</g>
 </g>
 </g>
 </g>
 </g>
 <g>
 <g transform="matrix(1.0,0.0,0.0,1.0,-164.99133,-387.62885)">
 <g>
 <g transform="matrix(1.0,0.0,0.0,1.0,-12.77779,0.0)">
 <g fill="rgb(0.0%,0.0%,0.0%)">
 <text style="stroke:none" transform="scale(1,-1) translate(12.77779,0)" text-anchor="middle"  font-size="10"> 
cc 5 1</text> 
</g>
 </g>
 </g>
 </g>
 </g>
 <g>
 <g transform="matrix(1.0,0.0,0.0,1.0,-193.41566,-415.31662)">
 <g>
 <g transform="matrix(1.0,0.0,0.0,1.0,-12.77779,0.0)">
 <g fill="rgb(0.0%,0.0%,0.0%)">
 <text style="stroke:none" transform="scale(1,-1) translate(12.77779,0)" text-anchor="middle"  font-size="10"> 
cc 5 0</text> 
</g>
 </g>
 </g>
 </g>
 </g>
 <g>
 <g transform="matrix(1.0,0.0,0.0,1.0,-193.41566,-443.0044)">
 <g>
 <g transform="matrix(1.0,0.0,0.0,1.0,-2.5,0.0)">
 <g fill="rgb(0.0%,0.0%,0.0%)">
 <text style="stroke:none" transform="scale(1,-1) translate(2.5,0)" text-anchor="middle"  font-size="10"> 
0</text> 
</g>
 </g>
 </g>
 </g>
 </g>
 <g>
 <g transform="matrix(1.0,0.0,0.0,1.0,-136.56702,-415.31662)">
 <g>
 <g transform="matrix(1.0,0.0,0.0,1.0,-12.77779,0.0)">
 <g fill="rgb(0.0%,0.0%,0.0%)">
 <text style="stroke:none" transform="scale(1,-1) translate(12.77779,0)" text-anchor="middle"  font-size="10"> 
cc 4 1</text> 
</g>
 </g>
 </g>
 </g>
 </g>
 <g>
 <g transform="matrix(1.0,0.0,0.0,1.0,-164.40598,-443.0044)">
 <g>
 <g transform="matrix(1.0,0.0,0.0,1.0,-12.77779,0.0)">
 <g fill="rgb(0.0%,0.0%,0.0%)">
 <text style="stroke:none" transform="scale(1,-1) translate(12.77779,0)" text-anchor="middle"  font-size="10"> 
cc 4 0</text> 
</g>
 </g>
 </g>
 </g>
 </g>
 <g>
 <g transform="matrix(1.0,0.0,0.0,1.0,-164.40598,-470.69217)">
 <g>
 <g transform="matrix(1.0,0.0,0.0,1.0,-2.5,0.0)">
 <g fill="rgb(0.0%,0.0%,0.0%)">
 <text style="stroke:none" transform="scale(1,-1) translate(2.5,0)" text-anchor="middle"  font-size="10"> 
0</text> 
</g>
 </g>
 </g>
 </g>
 </g>
 <g>
 <g transform="matrix(1.0,0.0,0.0,1.0,-108.72807,-443.0044)">
 <g>
 <g transform="matrix(1.0,0.0,0.0,1.0,-12.77779,0.0)">
 <g fill="rgb(0.0%,0.0%,0.0%)">
 <text style="stroke:none" transform="scale(1,-1) translate(12.77779,0)" text-anchor="middle"  font-size="10"> 
cc 3 1</text> 
</g>
 </g>
 </g>
 </g>
 </g>
 <g>
 <g transform="matrix(1.0,0.0,0.0,1.0,-135.39629,-470.69217)">
 <g>
 <g transform="matrix(1.0,0.0,0.0,1.0,-12.77779,0.0)">
 <g fill="rgb(0.0%,0.0%,0.0%)">
 <text style="stroke:none" transform="scale(1,-1) translate(12.77779,0)" text-anchor="middle"  font-size="10"> 
cc 3 0</text> 
</g>
 </g>
 </g>
 </g>
 </g>
 <g>
 <g transform="matrix(1.0,0.0,0.0,1.0,-135.39629,-498.37994)">
 <g>
 <g transform="matrix(1.0,0.0,0.0,1.0,-2.5,0.0)">
 <g fill="rgb(0.0%,0.0%,0.0%)">
 <text style="stroke:none" transform="scale(1,-1) translate(2.5,0)" text-anchor="middle"  font-size="10"> 
0</text> 
</g>
 </g>
 </g>
 </g>
 </g>
 <g>
 <g transform="matrix(1.0,0.0,0.0,1.0,-82.05988,-470.69217)">
 <g>
 <g transform="matrix(1.0,0.0,0.0,1.0,-12.77779,0.0)">
 <g fill="rgb(0.0%,0.0%,0.0%)">
 <text style="stroke:none" transform="scale(1,-1) translate(12.77779,0)" text-anchor="middle"  font-size="10"> 
cc 2 1</text> 
</g>
 </g>
 </g>
 </g>
 </g>
 <g>
 <g transform="matrix(1.0,0.0,0.0,1.0,-106.3866,-498.37994)">
 <g>
 <g transform="matrix(1.0,0.0,0.0,1.0,-12.77779,0.0)">
 <g fill="rgb(0.0%,0.0%,0.0%)">
 <text style="stroke:none" transform="scale(1,-1) translate(12.77779,0)" text-anchor="middle"  font-size="10"> 
cc 2 0</text> 
</g>
 </g>
 </g>
 </g>
 </g>
 <g>
 <g transform="matrix(1.0,0.0,0.0,1.0,-106.3866,-526.06772)">
 <g>
 <g transform="matrix(1.0,0.0,0.0,1.0,-2.5,0.0)">
 <g fill="rgb(0.0%,0.0%,0.0%)">
 <text style="stroke:none" transform="scale(1,-1) translate(2.5,0)" text-anchor="middle"  font-size="10"> 
0</text> 
</g>
 </g>
 </g>
 </g>
 </g>
 <g>
 <g transform="matrix(1.0,0.0,0.0,1.0,-57.73317,-498.37994)">
 <g>
 <g transform="matrix(1.0,0.0,0.0,1.0,-12.77779,0.0)">
 <g fill="rgb(0.0%,0.0%,0.0%)">
 <text style="stroke:none" transform="scale(1,-1) translate(12.77779,0)" text-anchor="middle"  font-size="10"> 
cc 1 1</text> 
</g>
 </g>
 </g>
 </g>
 </g>
 <g>
 <g transform="matrix(1.0,0.0,0.0,1.0,-77.3769,-526.06772)">
 <g>
 <g transform="matrix(1.0,0.0,0.0,1.0,-12.77779,0.0)">
 <g fill="rgb(0.0%,0.0%,0.0%)">
 <text style="stroke:none" transform="scale(1,-1) translate(12.77779,0)" text-anchor="middle"  font-size="10"> 
cc 1 0</text> 
</g>
 </g>
 </g>
 </g>
 </g>
 <g>
 <g transform="matrix(1.0,0.0,0.0,1.0,-77.3769,-553.7555)">
 <g>
 <g transform="matrix(1.0,0.0,0.0,1.0,-2.5,0.0)">
 <g fill="rgb(0.0%,0.0%,0.0%)">
 <text style="stroke:none" transform="scale(1,-1) translate(2.5,0)" text-anchor="middle"  font-size="10"> 
0</text> 
</g>
 </g>
 </g>
 </g>
 </g>
 <g>
 <g transform="matrix(1.0,0.0,0.0,1.0,-38.08943,-526.06772)">
 <g>
 <g transform="matrix(1.0,0.0,0.0,1.0,-12.77779,0.0)">
 <g fill="rgb(0.0%,0.0%,0.0%)">
 <text style="stroke:none" transform="scale(1,-1) translate(12.77779,0)" text-anchor="middle"  font-size="10"> 
cc 0 1</text> 
</g>
 </g>
 </g>
 </g>
 </g>
 <g>
 <g transform="matrix(1.0,0.0,0.0,1.0,-38.08943,-553.7555)">
 <g>
 <g transform="matrix(1.0,0.0,0.0,1.0,-2.5,0.0)">
 <g fill="rgb(0.0%,0.0%,0.0%)">
 <text style="stroke:none" transform="scale(1,-1) translate(2.5,0)" text-anchor="middle"  font-size="10"> 
1</text> 
</g>
 </g>
 </g>
 </g>
 </g>
 <g>
 <g transform="matrix(1.0,0.0,0.0,1.0,-114.8013,-221.5022)">
 <g>
 <g transform="matrix(1.0,0.0,0.0,1.0,-12.77779,0.0)">
 <g fill="rgb(0.0%,0.0%,0.0%)">
 <text style="stroke:none" transform="scale(1,-1) translate(12.77779,0)" text-anchor="middle"  font-size="10"> 
cc 6 2</text> 
</g>
 </g>
 </g>
 </g>
 </g>
 <g>
 <g transform="matrix(1.0,0.0,0.0,1.0,-193.78151,-249.18997)">
 <g>
 <g transform="matrix(1.0,0.0,0.0,1.0,-12.77779,0.0)">
 <g fill="rgb(0.0%,0.0%,0.0%)">
 <text style="stroke:none" transform="scale(1,-1) translate(12.77779,0)" text-anchor="middle"  font-size="10"> 
cc 6 1</text> 
</g>
 </g>
 </g>
 </g>
 </g>
 <g>
 <g transform="matrix(1.0,0.0,0.0,1.0,-222.49852,-276.87775)">
 <g>
 <g transform="matrix(1.0,0.0,0.0,1.0,-12.77779,0.0)">
 <g fill="rgb(0.0%,0.0%,0.0%)">
 <text style="stroke:none" transform="scale(1,-1) translate(12.77779,0)" text-anchor="middle"  font-size="10"> 
cc 6 0</text> 
</g>
 </g>
 </g>
 </g>
 </g>
 <g>
 <g transform="matrix(1.0,0.0,0.0,1.0,-222.49852,-304.56552)">
 <g>
 <g transform="matrix(1.0,0.0,0.0,1.0,-2.5,0.0)">
 <g fill="rgb(0.0%,0.0%,0.0%)">
 <text style="stroke:none" transform="scale(1,-1) translate(2.5,0)" text-anchor="middle"  font-size="10"> 
0</text> 
</g>
 </g>
 </g>
 </g>
 </g>
 <g>
 <g transform="matrix(1.0,0.0,0.0,1.0,-165.0645,-276.87775)">
 <g>
 <g transform="matrix(1.0,0.0,0.0,1.0,-12.77779,0.0)">
 <g fill="rgb(0.0%,0.0%,0.0%)">
 <text style="stroke:none" transform="scale(1,-1) translate(12.77779,0)" text-anchor="middle"  font-size="10"> 
cc 5 1</text> 
</g>
 </g>
 </g>
 </g>
 </g>
 <g>
 <g transform="matrix(1.0,0.0,0.0,1.0,-193.48883,-304.56552)">
 <g>
 <g transform="matrix(1.0,0.0,0.0,1.0,-12.77779,0.0)">
 <g fill="rgb(0.0%,0.0%,0.0%)">
 <text style="stroke:none" transform="scale(1,-1) translate(12.77779,0)" text-anchor="middle"  font-size="10"> 
cc 5 0</text> 
</g>
 </g>
 </g>
 </g>
 </g>
 <g>
 <g transform="matrix(1.0,0.0,0.0,1.0,-193.48883,-332.2533)">
 <g>
 <g transform="matrix(1.0,0.0,0.0,1.0,-2.5,0.0)">
 <g fill="rgb(0.0%,0.0%,0.0%)">
 <text style="stroke:none" transform="scale(1,-1) translate(2.5,0)" text-anchor="middle"  font-size="10"> 
0</text> 
</g>
 </g>
 </g>
 </g>
 </g>
 <g>
 <g transform="matrix(1.0,0.0,0.0,1.0,-136.64018,-304.56552)">
 <g>
 <g transform="matrix(1.0,0.0,0.0,1.0,-12.77779,0.0)">
 <g fill="rgb(0.0%,0.0%,0.0%)">
 <text style="stroke:none" transform="scale(1,-1) translate(12.77779,0)" text-anchor="middle"  font-size="10"> 
cc 4 1</text> 
</g>
 </g>
 </g>
 </g>
 </g>
 <g>
 <g transform="matrix(1.0,0.0,0.0,1.0,-164.47914,-332.2533)">
 <g>
 <g transform="matrix(1.0,0.0,0.0,1.0,-12.77779,0.0)">
 <g fill="rgb(0.0%,0.0%,0.0%)">
 <text style="stroke:none" transform="scale(1,-1) translate(12.77779,0)" text-anchor="middle"  font-size="10"> 
cc 4 0</text> 
</g>
 </g>
 </g>
 </g>
 </g>
 <g>
 <g transform="matrix(1.0,0.0,0.0,1.0,-164.47914,-359.94107)">
 <g>
 <g transform="matrix(1.0,0.0,0.0,1.0,-2.5,0.0)">
 <g fill="rgb(0.0%,0.0%,0.0%)">
 <text style="stroke:none" transform="scale(1,-1) translate(2.5,0)" text-anchor="middle"  font-size="10"> 
0</text> 
</g>
 </g>
 </g>
 </g>
 </g>
 <g>
 <g transform="matrix(1.0,0.0,0.0,1.0,-108.80124,-332.2533)">
 <g>
 <g transform="matrix(1.0,0.0,0.0,1.0,-12.77779,0.0)">
 <g fill="rgb(0.0%,0.0%,0.0%)">
 <text style="stroke:none" transform="scale(1,-1) translate(12.77779,0)" text-anchor="middle"  font-size="10"> 
cc 3 1</text> 
</g>
 </g>
 </g>
 </g>
 </g>
 <g>
 <g transform="matrix(1.0,0.0,0.0,1.0,-135.46945,-359.94107)">
 <g>
 <g transform="matrix(1.0,0.0,0.0,1.0,-12.77779,0.0)">
 <g fill="rgb(0.0%,0.0%,0.0%)">
 <text style="stroke:none" transform="scale(1,-1) translate(12.77779,0)" text-anchor="middle"  font-size="10"> 
cc 3 0</text> 
</g>
 </g>
 </g>
 </g>
 </g>
 <g>
 <g transform="matrix(1.0,0.0,0.0,1.0,-135.46945,-387.62885)">
 <g>
 <g transform="matrix(1.0,0.0,0.0,1.0,-2.5,0.0)">
 <g fill="rgb(0.0%,0.0%,0.0%)">
 <text style="stroke:none" transform="scale(1,-1) translate(2.5,0)" text-anchor="middle"  font-size="10"> 
0</text> 
</g>
 </g>
 </g>
 </g>
 </g>
 <g>
 <g transform="matrix(1.0,0.0,0.0,1.0,-82.13304,-359.94107)">
 <g>
 <g transform="matrix(1.0,0.0,0.0,1.0,-12.77779,0.0)">
 <g fill="rgb(0.0%,0.0%,0.0%)">
 <text style="stroke:none" transform="scale(1,-1) translate(12.77779,0)" text-anchor="middle"  font-size="10"> 
cc 2 1</text> 
</g>
 </g>
 </g>
 </g>
 </g>
 <g>
 <g transform="matrix(1.0,0.0,0.0,1.0,-106.45976,-387.62885)">
 <g>
 <g transform="matrix(1.0,0.0,0.0,1.0,-12.77779,0.0)">
 <g fill="rgb(0.0%,0.0%,0.0%)">
 <text style="stroke:none" transform="scale(1,-1) translate(12.77779,0)" text-anchor="middle"  font-size="10"> 
cc 2 0</text> 
</g>
 </g>
 </g>
 </g>
 </g>
 <g>
 <g transform="matrix(1.0,0.0,0.0,1.0,-106.45976,-415.31662)">
 <g>
 <g transform="matrix(1.0,0.0,0.0,1.0,-2.5,0.0)">
 <g fill="rgb(0.0%,0.0%,0.0%)">
 <text style="stroke:none" transform="scale(1,-1) translate(2.5,0)" text-anchor="middle"  font-size="10"> 
0</text> 
</g>
 </g>
 </g>
 </g>
 </g>
 <g>
 <g transform="matrix(1.0,0.0,0.0,1.0,-57.80634,-387.62885)">
 <g>
 <g transform="matrix(1.0,0.0,0.0,1.0,-12.77779,0.0)">
 <g fill="rgb(0.0%,0.0%,0.0%)">
 <text style="stroke:none" transform="scale(1,-1) translate(12.77779,0)" text-anchor="middle"  font-size="10"> 
cc 1 1</text> 
</g>
 </g>
 </g>
 </g>
 </g>
 <g>
 <g transform="matrix(1.0,0.0,0.0,1.0,-77.45007,-415.31662)">
 <g>
 <g transform="matrix(1.0,0.0,0.0,1.0,-12.77779,0.0)">
 <g fill="rgb(0.0%,0.0%,0.0%)">
 <text style="stroke:none" transform="scale(1,-1) translate(12.77779,0)" text-anchor="middle"  font-size="10"> 
cc 1 0</text> 
</g>
 </g>
 </g>
 </g>
 </g>
 <g>
 <g transform="matrix(1.0,0.0,0.0,1.0,-77.45007,-443.0044)">
 <g>
 <g transform="matrix(1.0,0.0,0.0,1.0,-2.5,0.0)">
 <g fill="rgb(0.0%,0.0%,0.0%)">
 <text style="stroke:none" transform="scale(1,-1) translate(2.5,0)" text-anchor="middle"  font-size="10"> 
0</text> 
</g>
 </g>
 </g>
 </g>
 </g>
 <g>
 <g transform="matrix(1.0,0.0,0.0,1.0,-38.1626,-415.31662)">
 <g>
 <g transform="matrix(1.0,0.0,0.0,1.0,-12.77779,0.0)">
 <g fill="rgb(0.0%,0.0%,0.0%)">
 <text style="stroke:none" transform="scale(1,-1) translate(12.77779,0)" text-anchor="middle"  font-size="10"> 
cc 0 1</text> 
</g>
 </g>
 </g>
 </g>
 </g>
 <g>
 <g transform="matrix(1.0,0.0,0.0,1.0,-38.1626,-443.0044)">
 <g>
 <g transform="matrix(1.0,0.0,0.0,1.0,-2.5,0.0)">
 <g fill="rgb(0.0%,0.0%,0.0%)">
 <text style="stroke:none" transform="scale(1,-1) translate(2.5,0)" text-anchor="middle"  font-size="10"> 
1</text> 
</g>
 </g>
 </g>
 </g>
 </g>
 <g>
 <g transform="matrix(1.0,0.0,0.0,1.0,-35.82109,-249.18997)">
 <g>
 <g transform="matrix(1.0,0.0,0.0,1.0,-12.77779,0.0)">
 <g fill="rgb(0.0%,0.0%,0.0%)">
 <text style="stroke:none" transform="scale(1,-1) translate(12.77779,0)" text-anchor="middle"  font-size="10"> 
cc 1 2</text> 
</g>
 </g>
 </g>
 </g>
 </g>
 <g>
 <g transform="matrix(1.0,0.0,0.0,1.0,-60.14781,-276.87775)">
 <g>
 <g transform="matrix(1.0,0.0,0.0,1.0,-12.77779,0.0)">
 <g fill="rgb(0.0%,0.0%,0.0%)">
 <text style="stroke:none" transform="scale(1,-1) translate(12.77779,0)" text-anchor="middle"  font-size="10"> 
cc 1 1</text> 
</g>
 </g>
 </g>
 </g>
 </g>
 <g>
 <g transform="matrix(1.0,0.0,0.0,1.0,-79.79155,-304.56552)">
 <g>
 <g transform="matrix(1.0,0.0,0.0,1.0,-12.77779,0.0)">
 <g fill="rgb(0.0%,0.0%,0.0%)">
 <text style="stroke:none" transform="scale(1,-1) translate(12.77779,0)" text-anchor="middle"  font-size="10"> 
cc 1 0</text> 
</g>
 </g>
 </g>
 </g>
 </g>
 <g>
 <g transform="matrix(1.0,0.0,0.0,1.0,-79.79155,-332.2533)">
 <g>
 <g transform="matrix(1.0,0.0,0.0,1.0,-2.5,0.0)">
 <g fill="rgb(0.0%,0.0%,0.0%)">
 <text style="stroke:none" transform="scale(1,-1) translate(2.5,0)" text-anchor="middle"  font-size="10"> 
0</text> 
</g>
 </g>
 </g>
 </g>
 </g>
 <g>
 <g transform="matrix(1.0,0.0,0.0,1.0,-40.50407,-304.56552)">
 <g>
 <g transform="matrix(1.0,0.0,0.0,1.0,-12.77779,0.0)">
 <g fill="rgb(0.0%,0.0%,0.0%)">
 <text style="stroke:none" transform="scale(1,-1) translate(12.77779,0)" text-anchor="middle"  font-size="10"> 
cc 0 1</text> 
</g>
 </g>
 </g>
 </g>
 </g>
 <g>
 <g transform="matrix(1.0,0.0,0.0,1.0,-40.50407,-332.2533)">
 <g>
 <g transform="matrix(1.0,0.0,0.0,1.0,-2.5,0.0)">
 <g fill="rgb(0.0%,0.0%,0.0%)">
 <text style="stroke:none" transform="scale(1,-1) translate(2.5,0)" text-anchor="middle"  font-size="10"> 
1</text> 
</g>
 </g>
 </g>
 </g>
 </g>
 <g>
 <g transform="matrix(1.0,0.0,0.0,1.0,-11.49438,-276.87775)">
 <g>
 <g transform="matrix(1.0,0.0,0.0,1.0,-14.44444,0.0)">
 <g fill="rgb(0.0%,0.0%,0.0%)">
 <text style="stroke:none" transform="scale(1,-1) translate(14.44444,0)" text-anchor="middle"  font-size="10"> 
cc -4 2</text> 
</g>
 </g>
 </g>
 </g>
 </g>
 <g>
 <g transform="matrix(1.0,0.0,0.0,1.0,-11.49438,-304.56552)">
 <g>
 <g transform="matrix(1.0,0.0,0.0,1.0,-2.5,0.0)">
 <g fill="rgb(0.0%,0.0%,0.0%)">
 <text style="stroke:none" transform="scale(1,-1) translate(2.5,0)" text-anchor="middle"  font-size="10"> 
0</text> 
</g>
 </g>
 </g>
 </g>
 </g>
 <g>
 <g transform="matrix(1.0,0.0,0.0,1.0,-11.35733,-110.7511)">
 <g>
 <g transform="matrix(1.0,0.0,0.0,1.0,-12.77779,0.0)">
 <g fill="rgb(0.0%,0.0%,0.0%)">
 <text style="stroke:none" transform="scale(1,-1) translate(12.77779,0)" text-anchor="middle"  font-size="10"> 
cc 1 3</text> 
</g>
 </g>
 </g>
 </g>
 </g>
 <g>
 <g transform="matrix(1.0,0.0,0.0,1.0,-38.85886,-138.43887)">
 <g>
 <g transform="matrix(1.0,0.0,0.0,1.0,-12.77779,0.0)">
 <g fill="rgb(0.0%,0.0%,0.0%)">
 <text style="stroke:none" transform="scale(1,-1) translate(12.77779,0)" text-anchor="middle"  font-size="10"> 
cc 1 2</text> 
</g>
 </g>
 </g>
 </g>
 </g>
 <g>
 <g transform="matrix(1.0,0.0,0.0,1.0,-63.18558,-166.12665)">
 <g>
 <g transform="matrix(1.0,0.0,0.0,1.0,-12.77779,0.0)">
 <g fill="rgb(0.0%,0.0%,0.0%)">
 <text style="stroke:none" transform="scale(1,-1) translate(12.77779,0)" text-anchor="middle"  font-size="10"> 
cc 1 1</text> 
</g>
 </g>
 </g>
 </g>
 </g>
 <g>
 <g transform="matrix(1.0,0.0,0.0,1.0,-82.82932,-193.81442)">
 <g>
 <g transform="matrix(1.0,0.0,0.0,1.0,-12.77779,0.0)">
 <g fill="rgb(0.0%,0.0%,0.0%)">
 <text style="stroke:none" transform="scale(1,-1) translate(12.77779,0)" text-anchor="middle"  font-size="10"> 
cc 1 0</text> 
</g>
 </g>
 </g>
 </g>
 </g>
 <g>
 <g transform="matrix(1.0,0.0,0.0,1.0,-82.82932,-221.5022)">
 <g>
 <g transform="matrix(1.0,0.0,0.0,1.0,-2.5,0.0)">
 <g fill="rgb(0.0%,0.0%,0.0%)">
 <text style="stroke:none" transform="scale(1,-1) translate(2.5,0)" text-anchor="middle"  font-size="10"> 
0</text> 
</g>
 </g>
 </g>
 </g>
 </g>
 <g>
 <g transform="matrix(1.0,0.0,0.0,1.0,-43.54184,-193.81442)">
 <g>
 <g transform="matrix(1.0,0.0,0.0,1.0,-12.77779,0.0)">
 <g fill="rgb(0.0%,0.0%,0.0%)">
 <text style="stroke:none" transform="scale(1,-1) translate(12.77779,0)" text-anchor="middle"  font-size="10"> 
cc 0 1</text> 
</g>
 </g>
 </g>
 </g>
 </g>
 <g>
 <g transform="matrix(1.0,0.0,0.0,1.0,-43.54184,-221.5022)">
 <g>
 <g transform="matrix(1.0,0.0,0.0,1.0,-2.5,0.0)">
 <g fill="rgb(0.0%,0.0%,0.0%)">
 <text style="stroke:none" transform="scale(1,-1) translate(2.5,0)" text-anchor="middle"  font-size="10"> 
1</text> 
</g>
 </g>
 </g>
 </g>
 </g>
 <g>
 <g transform="matrix(1.0,0.0,0.0,1.0,-14.53215,-166.12665)">
 <g>
 <g transform="matrix(1.0,0.0,0.0,1.0,-14.44444,0.0)">
 <g fill="rgb(0.0%,0.0%,0.0%)">
 <text style="stroke:none" transform="scale(1,-1) translate(14.44444,0)" text-anchor="middle"  font-size="10"> 
cc -4 2</text> 
</g>
 </g>
 </g>
 </g>
 </g>
 <g>
 <g transform="matrix(1.0,0.0,0.0,1.0,-14.53215,-193.81442)">
 <g>
 <g transform="matrix(1.0,0.0,0.0,1.0,-2.5,0.0)">
 <g fill="rgb(0.0%,0.0%,0.0%)">
 <text style="stroke:none" transform="scale(1,-1) translate(2.5,0)" text-anchor="middle"  font-size="10"> 
0</text> 
</g>
 </g>
 </g>
 </g>
 </g>
 <g>
 <g transform="matrix(1.0,0.0,0.0,1.0,16.1442,-138.43887)">
 <g>
 <g transform="matrix(1.0,0.0,0.0,1.0,-14.44444,0.0)">
 <g fill="rgb(0.0%,0.0%,0.0%)">
 <text style="stroke:none" transform="scale(1,-1) translate(14.44444,0)" text-anchor="middle"  font-size="10"> 
cc -9 3</text> 
</g>
 </g>
 </g>
 </g>
 </g>
 <g>
 <g transform="matrix(1.0,0.0,0.0,1.0,16.1442,-166.12665)">
 <g>
 <g transform="matrix(1.0,0.0,0.0,1.0,-2.5,0.0)">
 <g fill="rgb(0.0%,0.0%,0.0%)">
 <text style="stroke:none" transform="scale(1,-1) translate(2.5,0)" text-anchor="middle"  font-size="10"> 
0</text> 
</g>
 </g>
 </g>
 </g>
 </g>
 <g>
 <g transform="matrix(1.0,0.0,0.0,1.0,17.65236,-83.06332)">
 <g>
 <g transform="matrix(1.0,0.0,0.0,1.0,-16.94446,0.0)">
 <g fill="rgb(0.0%,0.0%,0.0%)">
 <text style="stroke:none" transform="scale(1,-1) translate(16.94446,0)" text-anchor="middle"  font-size="10"> 
cc -14 4</text> 
</g>
 </g>
 </g>
 </g>
 </g>
 <g>
 <g transform="matrix(1.0,0.0,0.0,1.0,17.65236,-110.7511)">
 <g>
 <g transform="matrix(1.0,0.0,0.0,1.0,-2.5,0.0)">
 <g fill="rgb(0.0%,0.0%,0.0%)">
 <text style="stroke:none" transform="scale(1,-1) translate(2.5,0)" text-anchor="middle"  font-size="10"> 
0</text> 
</g>
 </g>
 </g>
 </g>
 </g>
 <g>
 <g transform="matrix(1.0,0.0,0.0,1.0,50.82872,-55.37555)">
 <g>
 <g transform="matrix(1.0,0.0,0.0,1.0,-16.94446,0.0)">
 <g fill="rgb(0.0%,0.0%,0.0%)">
 <text style="stroke:none" transform="scale(1,-1) translate(16.94446,0)" text-anchor="middle"  font-size="10"> 
cc -39 5</text> 
</g>
 </g>
 </g>
 </g>
 </g>
 <g>
 <g transform="matrix(1.0,0.0,0.0,1.0,50.82872,-83.06332)">
 <g>
 <g transform="matrix(1.0,0.0,0.0,1.0,-2.5,0.0)">
 <g fill="rgb(0.0%,0.0%,0.0%)">
 <text style="stroke:none" transform="scale(1,-1) translate(2.5,0)" text-anchor="middle"  font-size="10"> 
0</text> 
</g>
 </g>
 </g>
 </g>
 </g>
 <path d=" M  0.0 -3.53297 L  0.0 -17.71037  " style="fill:none"/>
 <path d=" M  -12.39941 -31.22075 L  -38.43282 -45.39815  " style="fill:none"/>
 <path d=" M  -67.53435 -58.90852 L  -102.60881 -73.08592  " style="fill:none"/>
 <path d=" M  -125.89294 -86.5963 L  -220.68613 -183.83702  " style="fill:none"/>
 <path d=" M  -246.07303 -195.21912 L  -320.91249 -213.6548  " style="fill:none"/>
 <path d=" M  -347.10277 -225.03517 L  -362.59645 -239.21257  " style="fill:none"/>
 <path d=" M  -369.9738 -252.72295 L  -369.9738 -266.90034  " style="fill:none"/>
 <path d=" M  -332.34373 -225.03517 L  -316.85005 -239.21257  " style="fill:none"/>
 <path d=" M  -316.54504 -252.72295 L  -331.39383 -266.90034  " style="fill:none"/>
 <path d=" M  -338.46411 -280.41072 L  -338.46411 -294.58812  " style="fill:none"/>
 <path d=" M  -302.40036 -252.72295 L  -287.55159 -266.90034  " style="fill:none"/>
 <path d=" M  -287.54912 -280.41072 L  -302.38857 -294.58812  " style="fill:none"/>
 <path d=" M  -309.45442 -308.0985 L  -309.45442 -322.2759  " style="fill:none"/>
 <path d=" M  -273.4135 -280.41072 L  -258.57407 -294.58812  " style="fill:none"/>
 <path d=" M  -258.56715 -308.0985 L  -273.38785 -322.2759  " style="fill:none"/>
 <path d=" M  -280.44473 -335.78627 L  -280.44473 -349.96367  " style="fill:none"/>
 <path d=" M  -244.44926 -308.0985 L  -229.62857 -322.2759  " style="fill:none"/>
 <path d=" M  -229.6128 -335.78627 L  -244.396 -349.96367  " style="fill:none"/>
 <path d=" M  -251.43504 -363.47404 L  -251.43504 -377.65144  " style="fill:none"/>
 <path d=" M  -215.53058 -335.78627 L  -200.74739 -349.96367  " style="fill:none"/>
 <path d=" M  -200.71368 -363.47404 L  -215.42197 -377.65144  " style="fill:none"/>
 <path d=" M  -222.42535 -391.16182 L  -222.42535 -405.33922  " style="fill:none"/>
 <path d=" M  -186.703 -363.47404 L  -171.99472 -377.65144  " style="fill:none"/>
 <path d=" M  -171.92535 -391.16182 L  -186.4837 -405.33922  " style="fill:none"/>
 <path d=" M  -193.41566 -418.8496 L  -193.41566 -433.027  " style="fill:none"/>
 <path d=" M  -158.05731 -391.16182 L  -143.49898 -405.33922  " style="fill:none"/>
 <path d=" M  -143.35817 -418.8496 L  -157.61678 -433.027  " style="fill:none"/>
 <path d=" M  -164.40598 -446.53737 L  -164.40598 -460.71477  " style="fill:none"/>
 <path d=" M  -129.77586 -418.8496 L  -115.51727 -433.027  " style="fill:none"/>
 <path d=" M  -115.2336 -446.53737 L  -128.89261 -460.71477  " style="fill:none"/>
 <path d=" M  -135.39629 -474.22514 L  -135.39629 -488.40254  " style="fill:none"/>
 <path d=" M  -102.22255 -446.53737 L  -88.56355 -460.71477  " style="fill:none"/>
 <path d=" M  -87.99426 -474.22514 L  -100.45386 -488.40254  " style="fill:none"/>
 <path d=" M  -106.3866 -501.91292 L  -106.3866 -516.09032  " style="fill:none"/>
 <path d=" M  -76.12549 -474.22514 L  -63.6658 -488.40254  " style="fill:none"/>
 <path d=" M  -62.52516 -501.91292 L  -72.58626 -516.09032  " style="fill:none"/>
 <path d=" M  -77.3769 -529.6007 L  -77.3769 -543.77809  " style="fill:none"/>
 <path d=" M  -52.94118 -501.91292 L  -42.88008 -516.09032  " style="fill:none"/>
 <path d=" M  -38.08943 -529.6007 L  -38.08943 -543.77809  " style="fill:none"/>
 <path d=" M  -208.4515 -195.22026 L  -131.11206 -214.2695  " style="fill:none"/>
 <path d=" M  -131.11206 -223.99532 L  -177.47075 -240.25517  " style="fill:none"/>
 <path d=" M  -200.78685 -252.72295 L  -215.49513 -266.90034  " style="fill:none"/>
 <path d=" M  -222.49852 -280.41072 L  -222.49852 -294.58812  " style="fill:none"/>
 <path d=" M  -186.77617 -252.72295 L  -172.06789 -266.90034  " style="fill:none"/>
 <path d=" M  -171.99852 -280.41072 L  -186.55687 -294.58812  " style="fill:none"/>
 <path d=" M  -193.48883 -308.0985 L  -193.48883 -322.2759  " style="fill:none"/>
 <path d=" M  -158.13048 -280.41072 L  -143.57214 -294.58812  " style="fill:none"/>
 <path d=" M  -143.43134 -308.0985 L  -157.68994 -322.2759  " style="fill:none"/>
 <path d=" M  -164.47914 -335.78627 L  -164.47914 -349.96367  " style="fill:none"/>
 <path d=" M  -129.84903 -308.0985 L  -115.59044 -322.2759  " style="fill:none"/>
 <path d=" M  -115.30676 -335.78627 L  -128.96577 -349.96367  " style="fill:none"/>
 <path d=" M  -135.46945 -363.47404 L  -135.46945 -377.65144  " style="fill:none"/>
 <path d=" M  -102.29572 -335.78627 L  -88.63672 -349.96367  " style="fill:none"/>
 <path d=" M  -88.06743 -363.47404 L  -100.52702 -377.65144  " style="fill:none"/>
 <path d=" M  -106.45976 -391.16182 L  -106.45976 -405.33922  " style="fill:none"/>
 <path d=" M  -76.19865 -363.47404 L  -63.73897 -377.65144  " style="fill:none"/>
 <path d=" M  -62.59833 -391.16182 L  -72.65942 -405.33922  " style="fill:none"/>
 <path d=" M  -77.45007 -418.8496 L  -77.45007 -433.027  " style="fill:none"/>
 <path d=" M  -53.01434 -391.16182 L  -42.95325 -405.33922  " style="fill:none"/>
 <path d=" M  -38.1626 -418.8496 L  -38.1626 -433.027  " style="fill:none"/>
 <path d=" M  -98.49054 -223.99532 L  -52.13185 -240.25517  " style="fill:none"/>
 <path d=" M  -41.75548 -252.72295 L  -54.21507 -266.90034  " style="fill:none"/>
 <path d=" M  -64.9398 -280.41072 L  -75.0009 -294.58812  " style="fill:none"/>
 <path d=" M  -79.79155 -308.0985 L  -79.79155 -322.2759  " style="fill:none"/>
 <path d=" M  -55.35582 -280.41072 L  -45.29472 -294.58812  " style="fill:none"/>
 <path d=" M  -40.50407 -308.0985 L  -40.50407 -322.2759  " style="fill:none"/>
 <path d=" M  -29.8867 -252.72295 L  -17.42702 -266.90034  " style="fill:none"/>
 <path d=" M  -11.49438 -280.41072 L  -11.49438 -294.58812  " style="fill:none"/>
 <path d=" M  -100.49904 -84.66492 L  -27.66809 -103.34618  " style="fill:none"/>
 <path d=" M  -18.06622 -114.28407 L  -32.15192 -128.46147  " style="fill:none"/>
 <path d=" M  -44.79324 -141.97185 L  -57.25284 -156.14925  " style="fill:none"/>
 <path d=" M  -67.97757 -169.65962 L  -78.03867 -183.83702  " style="fill:none"/>
 <path d=" M  -82.82932 -197.3474 L  -82.82932 -211.5248  " style="fill:none"/>
 <path d=" M  -58.39359 -169.65962 L  -48.33249 -183.83702  " style="fill:none"/>
 <path d=" M  -43.54184 -197.3474 L  -43.54184 -211.5248  " style="fill:none"/>
 <path d=" M  -32.92447 -141.97185 L  -20.46478 -156.14925  " style="fill:none"/>
 <path d=" M  -14.53215 -169.65962 L  -14.53215 -183.83702  " style="fill:none"/>
 <path d=" M  -4.64844 -114.28407 L  9.43726 -128.46147  " style="fill:none"/>
 <path d=" M  16.1442 -141.97185 L  16.1442 -156.14925  " style="fill:none"/>
 <path d=" M  -34.1231 -58.90852 L  0.95137 -73.08592  " style="fill:none"/>
 <path d=" M  17.65236 -86.5963 L  17.65236 -100.7737  " style="fill:none"/>
 <path d=" M  12.39941 -31.22075 L  38.43282 -45.39815  " style="fill:none"/>
 <path d=" M  50.82872 -58.90852 L  50.82872 -73.08592  " style="fill:none"/>
 </g>
 </g>
 </g>
 </g>
 </g>
 
                                                                                                                                          </g> 
</svg> 
